PathFileType	4	(X/Y/Z)	..\data\2014004\dynamic\2014004_C4_02.trc
DataRate	CameraRate	NumFrames	NumMarkers	Units	OrigDataRate	OrigDataStartFrame	OrigNumFrames
100.000000	100.000000	4	52	mm	100.000000	21	172
Frame#	Time	L_IAS			L_IPS			R_IPS			R_IAS			L_FTC			L_FLE			L_FME			L_FAX			L_TTC			L_FAL			L_TAM			L_FCC			L_FM1			L_FM2			L_FM5			R_FTC			R_FLE			R_FME			R_FAX			R_TTC			R_FAL			R_TAM			R_FCC			R_FM1			R_FM2			R_FM5			CV7			TV10			SXS			SJN			L_SIA			L_SRS			L_SAA			L_SAE			L_HLE			L_HME			L_UOA			L_RSP			L_UHE			L_HM2			L_HM5			R_SIA			R_SRS			R_SAA			R_SAE			R_HLE			R_HME			R_UOA			R_RSP			R_UHE			R_HM2			R_HM5			
		X1	Y1	Z1	X2	Y2	Z2	X3	Y3	Z3	X4	Y4	Z4	X5	Y5	Z5	X6	Y6	Z6	X7	Y7	Z7	X8	Y8	Z8	X9	Y9	Z9	X10	Y10	Z10	X11	Y11	Z11	X12	Y12	Z12	X13	Y13	Z13	X14	Y14	Z14	X15	Y15	Z15	X16	Y16	Z16	X17	Y17	Z17	X18	Y18	Z18	X19	Y19	Z19	X20	Y20	Z20	X21	Y21	Z21	X22	Y22	Z22	X23	Y23	Z23	X24	Y24	Z24	X25	Y25	Z25	X26	Y26	Z26	X27	Y27	Z27	X28	Y28	Z28	X29	Y29	Z29	X30	Y30	Z30	X31	Y31	Z31	X32	Y32	Z32	X33	Y33	Z33	X34	Y34	Z34	X35	Y35	Z35	X36	Y36	Z36	X37	Y37	Z37	X38	Y38	Z38	X39	Y39	Z39	X40	Y40	Z40	X41	Y41	Z41	X42	Y42	Z42	X43	Y43	Z43	X44	Y44	Z44	X45	Y45	Z45	X46	Y46	Z46	X47	Y47	Z47	X48	Y48	Z48	X49	Y49	Z49	X50	Y50	Z50	X51	Y51	Z51	X52	Y52	Z52	

22	0.21	-844.0320434570315	954.4813232421877	141.821548461914	-1043.09423828125	974.6302490234377	214.8455657958984	-1039.272216796875	972.6873168945315	306.9623718261718	-843.0203247070315	944.811462402344	371.4563903808593	-924.7005004882815	893.585876464844	71.36710357666006	-816.1226806640627	486.173553466797	120.6105651855468	-808.909606933594	496.2706604003907	245.4147186279297	-824.2486572265627	423.3014526367189	114.1970443725585	-759.0064697265626	413.8038330078126	184.8871307373046	-831.9918212890627	59.97333145141603	153.4412994384765	-812.3173828125002	84.80797576904298	247.1463928222656	-883.5970458984377	26.52631378173829	204.6618652343749	-678.3475952148439	28.43474578857423	246.7035675048828	-678.3866577148439	43.1451530456543	188.2945404052734	-704.0338745117189	19.11458778381348	135.1735229492187	-904.544616699219	865.258728027344	435.4526672363281	-964.8222656250002	449.6569824218751	423.9285888671875	-919.8691406250002	435.2673950195314	301.0142517089843	-993.9147949218752	426.5536193847657	427.1727905273438	-943.581726074219	376.4469604492188	383.9945068359374	-1273.194213867188	196.6236419677735	388.8364868164062	-1241.873901367188	207.0105285644532	295.3506469726561	-1329.013305664063	222.2470703125001	326.6580505371093	-1227.27294921875	63.95539855957033	287.553497314453	-1221.81689453125	65.1275100708008	339.5119323730468	-1253.140625	64.18038940429689	385.8387451171874	-973.3670043945315	1462.36474609375	230.5721893310546	-1059.843872070313	1236.509155273438	247.8945770263671	-818.1140747070315	1180.806884765625	229.7481994628906	-858.8502197265627	1367.790649414063	228.5432128906249	-1069.772827148438	1265.888793945313	136.7015075683593	-1031.175537109375	1404.563720703125	158.1947631835937	-998.630554199219	1407.154052734375	74.04168701171864	-931.828063964844	1405.233276367188	39.74822616577138	-1012.947814941406	1090.40283203125	-8.845778465271122	-1039.333251953125	1095.776611328125	74.37432861328114	-1053.8408203125	1083.740600585938	26.90805435180652	-965.0378417968752	823.5255126953127	26.12003707885731	-1028.66796875	846.882507324219	-16.56093597412122	-963.954528808594	737.2198486328126	20.35730552673328	-1061.075561523438	762.5006103515626	-10.75057220458998	-1053.884033203125	1259.755493164063	369.8452148437499	-1022.169311523438	1401.834106445313	322.6037597656249	-962.0054321289065	1416.907470703125	399.3063659667969	-899.089294433594	1417.5419921875	410.3994750976562	-973.2954711914066	1111.734130859375	530.2041015625	-1005.039245605469	1096.385864257813	445.4581604003906	-1021.009216308594	1092.16748046875	499.1598510742188	-834.1999511718753	876.336853027344	503.42431640625	-899.2783813476566	868.2202758789065	549.3604125976562	-796.7547607421878	794.8826293945315	522.6402587890625	-900.0900878906253	784.345642089844	545.3486938476562	
23	0.22	-832.881042480469	955.4707031250002	140.5068359374999	-1031.758056640625	976.0603637695315	214.4421691894531	-1027.766357421875	973.6482543945315	306.3859863281249	-831.469177246094	946.768981933594	370.1953735351562	-914.4353027343752	894.393737792969	70.79531097412099	-810.7812500000002	485.9161987304689	120.5226516723632	-803.180603027344	496.0255432128907	245.3592834472656	-819.8462524414065	423.030731201172	114.2786483764648	-754.3298950195314	412.9035949707032	184.8560028076171	-831.7977294921877	60.0537567138672	153.9279479980468	-812.1614379882815	84.72744750976564	247.6282348632812	-883.476989746094	26.56998443603516	204.9541320800781	-678.2031860351564	28.00012779235841	246.9554595947265	-678.0317382812501	43.02968978881837	188.4850616455078	-704.0370483398439	19.30978202819825	135.0723876953124	-891.0889282226565	866.9559326171877	434.5798950195312	-939.9254150390627	450.0288391113282	424.1478881835938	-895.8582763671877	436.1963806152345	300.8537597656249	-968.8551025390627	427.1167907714845	427.3130187988281	-918.811706542969	377.3014221191407	383.7500915527343	-1249.890380859375	200.052719116211	389.7207946777343	-1218.991455078125	210.0162353515626	295.934356689453	-1306.31494140625	224.9245758056641	327.5438537597655	-1203.56005859375	66.65626525878908	289.8263244628905	-1198.070678710938	68.70667266845705	341.7445983886718	-1229.275146484375	68.22065734863283	388.1011657714843	-961.783630371094	1463.892211914063	229.0755310058593	-1048.379150390625	1238.048461914063	246.3335723876952	-806.8646240234377	1182.1376953125	228.9056549072265	-847.3513793945315	1369.237670898438	227.4554901123046	-1057.593383789063	1267.541015625	134.3867645263671	-1019.28955078125	1406.033081054688	156.3187561035155	-986.2830200195315	1408.829467773438	72.29128265380849	-919.201354980469	1406.899658203125	38.5278091430663	-997.3943481445315	1091.314208984375	-11.03063297271741	-1024.763061523438	1096.602294921875	72.06626129150379	-1038.418334960938	1084.025024414063	24.43826103210437	-944.6584472656252	825.421325683594	25.71350669860829	-1008.062133789063	847.2949218750002	-17.70070457458509	-941.6799316406252	739.1940307617189	20.48235130310048	-1038.7626953125	762.1276855468751	-11.48955726623548	-1042.83251953125	1261.578979492188	368.1419982910156	-1010.78369140625	1403.504028320313	321.0852661132812	-950.693298339844	1418.61279296875	397.8587036132812	-887.8045654296877	1419.159912109375	409.1226501464844	-963.6260986328128	1113.947998046875	529.1820068359375	-996.040954589844	1099.016357421875	444.7696533203125	-1011.749084472657	1095.3076171875	498.4992980957031	-829.4371337890628	875.6202392578127	502.4998474121094	-894.3222656250003	869.180358886719	549.1384887695312	-793.9880981445316	792.8816528320315	520.9686889648438	-897.1795654296878	785.253356933594	545.4395751953125	
24	0.23	-821.830993652344	956.3501586914065	139.2405853271484	-1020.54345703125	977.3475341796877	214.0699005126953	-1016.442199707031	974.4678344726565	305.8052062988281	-820.006774902344	948.6850585937502	369.0505981445312	-904.2637939453127	895.1001586914065	70.28038024902334	-805.726989746094	485.6026916503907	120.4787368774413	-797.7185058593752	495.6886596679689	245.3425140380859	-815.6978149414065	422.7125549316407	114.3891372680663	-749.9425048828126	411.9759216308595	184.860855102539	-831.618591308594	60.08729934692384	154.3971710205077	-812.0161743164065	84.59703063964845	248.0940704345703	-883.4006958007815	26.62953186035157	205.2516174316406	-678.0578002929689	27.58394432067872	247.1996765136718	-677.7149047851564	42.81103134155274	188.6507873535156	-704.0843505859376	19.39868354797364	135.0341033935546	-877.7576904296877	868.684509277344	433.7518310546875	-915.2173461914065	450.7941284179689	424.1275329589844	-872.0433349609377	437.6408691406251	300.4833068847656	-943.9939575195315	427.9923706054689	427.2021789550781	-894.0186157226565	378.6014709472657	383.3512878417968	-1225.5380859375	202.1675720214844	390.1928405761718	-1194.898315429688	211.8277740478516	296.1970825195311	-1282.638916015625	225.6057586669922	327.9129943847655	-1177.08935546875	68.59178161621095	292.1092224121093	-1171.815307617188	71.77953338623048	344.0420532226561	-1203.02490234375	71.5377655029297	390.3829040527343	-950.3018798828127	1465.333251953125	227.7247161865234	-1037.079711914063	1239.520874023438	244.8210449218749	-795.7525024414065	1183.3408203125	228.1547241210937	-835.9569091796877	1370.570922851563	226.4887390136718	-1045.5673828125	1269.122680664063	132.1517944335936	-1007.533264160156	1407.48046875	154.5959014892577	-974.0659179687502	1410.447021484375	70.65442657470693	-906.7025146484377	1408.497680664063	37.423671722412	-981.8181762695315	1092.138671875	-13.14110946655286	-1010.100402832031	1097.254272460938	69.78119659423817	-1022.930908203125	1084.156372070313	22.02874374389636	-923.9055175781252	827.4104614257815	25.19730186462392	-987.1057128906252	847.7003173828127	-18.85473060607923	-918.787048339844	741.3765869140626	20.43894386291493	-1015.902221679688	761.7206420898439	-12.18994140625013	-1031.997436523438	1263.22265625	366.4028320312499	-999.525573730469	1405.056762695313	319.6593627929687	-939.5405883789065	1420.113647460938	396.5518798828125	-876.674987792969	1420.556640625	408.0280151367188	-954.2002563476566	1115.877319335938	528.1531982421875	-987.226257324219	1101.359008789063	444.0851745605469	-1002.654541015625	1098.128295898438	497.8039245605469	-824.6876831054691	874.9409790039065	501.61865234375	-889.3466796875003	870.0615844726565	548.9237060546875	-791.1931152343753	791.0137939453127	519.3159790039062	-894.0959472656253	786.1270141601565	545.54248046875	
25	0.24	-810.8652343750002	957.145446777344	138.0216674804687	-1009.427062988281	978.5130004882815	213.7313842773437	-1005.263122558594	975.2037353515627	305.2499694824218	-808.6114501953127	950.5545654296877	367.9953002929687	-894.1556396484377	895.738220214844	69.81949615478506	-800.8880004882815	485.2560424804689	120.4717712402343	-792.4561157226565	495.2844238281251	245.3514099121093	-811.7244873046877	422.378143310547	114.5188369750976	-745.7952880859376	411.0382080078126	184.8992462158203	-831.4431762695315	60.09402465820314	154.8365173339843	-811.868347167969	84.43429565429689	248.5362396240234	-883.3548583984377	26.72176361083985	205.5378875732421	-677.9107055664064	27.16914558410645	247.4361572265625	-677.4373779296876	42.49738311767579	188.8098907470703	-704.1599121093751	19.38848304748536	135.0438385009765	-864.5473632812502	870.4439086914065	432.9618835449219	-890.8098754882815	451.9380493164064	423.8846435546875	-848.4703369140627	439.5602416992189	299.9446411132812	-919.4493408203127	429.1714477539064	426.8724975585938	-869.2966918945315	380.3296508789063	382.8526306152343	-1200.240600585938	202.905746459961	390.2678833007812	-1169.665771484375	212.3794250488282	296.1725158691405	-1258.038818359375	224.3086700439454	327.7834167480468	-1148.1318359375	69.69466400146486	294.3585510253906	-1143.320434570313	74.21401977539064	346.3379211425781	-1174.638549804688	74.01489257812501	392.6029357910156	-938.9146728515627	1466.6845703125	226.513931274414	-1025.921630859375	1240.916259765625	243.3704528808593	-784.753845214844	1184.436401367188	227.4754791259765	-824.657409667969	1371.797729492188	225.6288146972656	-1033.699584960938	1270.6201171875	130.0244750976562	-995.9072875976565	1408.893676757813	153.031768798828	-961.997985839844	1411.98779296875	69.13616943359365	-894.357116699219	1410.016845703125	36.42587280273428	-966.223083496094	1092.862060546875	-15.14330768585217	-995.3162841796877	1097.714965820313	67.5607452392577	-1007.374877929688	1084.12451171875	19.72353744506824	-902.813903808594	829.495300292969	24.55492973327626	-965.8626708984377	848.1099243164065	-20.01038932800305	-895.3281860351565	743.7807617187501	20.1912441253661	-992.5623168945315	761.3234252929689	-12.86104965209973	-1021.342163085938	1264.688232421875	364.6536560058593	-988.380065917969	1406.493774414063	318.3248901367187	-928.5249633789065	1421.4228515625	395.3746337890625	-865.6843872070315	1421.749633789063	407.1004028320312	-945.0100708007816	1117.542602539063	527.0935668945312	-978.5703735351565	1103.440551757813	443.3643188476562	-993.7106323242191	1100.642822265625	497.0313415527344	-819.9302978515628	874.2966918945315	500.7911071777344	-884.3555297851566	870.8616333007815	548.6974487304688	-788.3295288085941	789.2966308593752	517.751953125	-890.8328857421878	786.961608886719	545.6444091796875	
